<?xml version="1.0" standalone="no"?><!DOCTYPE svg PUBLIC "-//W3C//DTD SVG 1.1//EN" "http://www.w3.org/Graphics/SVG/1.1/DTD/svg11.dtd"><svg t="1771738361775" class="icon" viewBox="0 0 1024 1024" version="1.1" xmlns="http://www.w3.org/2000/svg" p-id="5188" id="mx_n_1771738361776" xmlns:xlink="http://www.w3.org/1999/xlink" width="200" height="200"><path d="M1.536 513.024C1.536 795.136 230.4 1024 512.512 1024s510.976-228.864 510.976-510.976S794.624 2.048 512.512 2.048C230.4 1.536 1.536 230.4 1.536 513.024z" fill="#FF9E39" p-id="5189"></path><path d="M528.384 271.36L392.704 366.08H323.584c-36.864 0-69.12 32.768-69.12 73.728v146.432c0 40.96 29.696 73.728 69.12 73.728h69.12l138.752 94.72c18.944 8.192 34.816 0 34.816-21.504v-440.32c-3.072-21.504-18.432-29.696-37.888-21.504" fill="#FCFCFC" p-id="5190"></path><path d="M631.808 601.6c-7.168 0-13.824-3.072-18.944-7.68-5.632-5.12-7.68-12.288-7.68-18.944 0-7.168 3.072-14.336 7.68-18.944 10.752-11.776 16.896-26.112 16.896-41.984 0-15.872-5.632-30.208-16.896-41.984-5.12-5.12-7.68-12.288-7.68-18.944 0-7.168 3.072-14.336 7.68-18.944 5.12-5.12 12.288-8.192 18.944-8.192s13.824 3.072 18.944 8.192c20.992 20.992 32.768 49.664 32.768 80.384 0 30.208-11.776 58.88-32.768 80.384-5.12 3.584-11.776 6.656-18.944 6.656" fill="#F7C691" p-id="5191"></path><path d="M716.288 671.232c-9.728 11.776-25.6 11.776-35.328 0-9.728-11.776-9.728-29.696 0-41.472 24.576-28.16 39.936-68.096 39.936-111.616s-15.36-82.944-39.936-111.616c-9.728-11.776-9.728-29.696 0-41.472s25.6-11.776 35.328 0c33.792 38.912 54.272 93.184 54.272 152.576 0.512 60.416-20.992 114.176-54.272 153.6" fill="#F7C691" p-id="5192"></path></svg>